<svg xmlns="http://www.w3.org/2000/svg" xmlns:xlink="http://www.w3.org/1999/xlink" width="40" zoomAndPan="magnify" viewBox="0 0 30 30.000001" height="40" preserveAspectRatio="xMidYMid meet" version="1.0"><defs><clipPath id="d78e492e56"><path d="M 1.933594 0.589844 L 28.066406 0.589844 L 28.066406 28.171875 L 1.933594 28.171875 Z M 1.933594 0.589844 " clip-rule="nonzero"/></clipPath><clipPath id="13b4578d3e"><path d="M 14 0.589844 L 28.066406 0.589844 L 28.066406 28.171875 L 14 28.171875 Z M 14 0.589844 " clip-rule="nonzero"/></clipPath></defs><g clip-path="url(#d78e492e56)"><path fill="#e23237" d="M 1.933594 5.210938 L 14.820312 0.667969 L 28.042969 5.140625 L 25.90625 22.019531 L 14.820312 28.09375 L 3.914062 22.097656 Z M 1.933594 5.210938 " fill-opacity="1" fill-rule="nonzero"/></g><g clip-path="url(#13b4578d3e)"><path fill="#b52e31" d="M 28.042969 5.140625 L 14.820312 0.667969 L 14.820312 28.09375 L 25.90625 22.019531 Z M 28.042969 5.140625 " fill-opacity="1" fill-rule="nonzero"/></g><path fill="#ffffff" d="M 14.839844 3.875 L 6.8125 21.5625 L 9.808594 21.503906 L 11.425781 17.507812 L 18.605469 17.507812 L 20.363281 21.535156 L 23.222656 21.59375 Z M 14.859375 9.550781 L 17.578125 15.171875 L 12.492188 15.171875 L 14.867188 9.550781 Z M 14.859375 9.550781 " fill-opacity="1" fill-rule="nonzero"/></svg>