<svg xmlns="http://www.w3.org/2000/svg" xmlns:xlink="http://www.w3.org/1999/xlink" width="60" zoomAndPan="magnify" viewBox="0 0 45 60" height="80" preserveAspectRatio="xMidYMid meet" version="1.0"><defs><clipPath id="312d6aee82"><path d="M 11 8.429688 L 21 8.429688 L 21 19 L 11 19 Z M 11 8.429688 " clip-rule="nonzero"/></clipPath><clipPath id="fae3a0fe83"><path d="M 23 8.429688 L 33 8.429688 L 33 18 L 23 18 Z M 23 8.429688 " clip-rule="nonzero"/></clipPath><clipPath id="e0ffb61d80"><path d="M 13 49 L 36 49 L 36 51.929688 L 13 51.929688 Z M 13 49 " clip-rule="nonzero"/></clipPath></defs><g clip-path="url(#312d6aee82)"><path fill="#ef303f" d="M 20.234375 13.515625 C 20.234375 16.046875 18.199219 18.097656 15.691406 18.097656 C 13.179688 18.097656 11.144531 16.046875 11.144531 13.515625 C 11.144531 10.984375 13.179688 8.929688 15.691406 8.929688 C 18.199219 8.929688 20.234375 10.984375 20.234375 13.515625 " fill-opacity="1" fill-rule="nonzero"/></g><path fill="#80cc28" d="M 42.414062 19.519531 C 42.414062 22.050781 40.378906 24.101562 37.867188 24.101562 C 35.355469 24.101562 33.320312 22.050781 33.320312 19.519531 C 33.320312 16.988281 35.355469 14.933594 37.867188 14.933594 C 40.378906 14.933594 42.414062 16.988281 42.414062 19.519531 " fill-opacity="1" fill-rule="nonzero"/><g clip-path="url(#fae3a0fe83)"><path fill="#347eab" d="M 32.960938 13.007812 C 32.960938 15.539062 30.925781 17.589844 28.414062 17.589844 C 25.90625 17.589844 23.871094 15.539062 23.871094 13.007812 C 23.871094 10.472656 25.90625 8.421875 28.414062 8.421875 C 30.925781 8.421875 32.960938 10.472656 32.960938 13.007812 " fill-opacity="1" fill-rule="nonzero"/></g><path fill="#544446" d="M 44.996094 31.277344 C 44.996094 33.808594 42.960938 35.863281 40.449219 35.863281 C 37.941406 35.863281 35.90625 33.808594 35.90625 31.277344 C 35.90625 28.746094 37.941406 26.695312 40.449219 26.695312 C 42.960938 26.695312 44.996094 28.746094 44.996094 31.277344 " fill-opacity="1" fill-rule="nonzero"/><path fill="#f14624" d="M 9.109375 30.882812 C 9.109375 33.414062 7.074219 35.464844 4.5625 35.464844 C 2.050781 35.464844 0.015625 33.414062 0.015625 30.882812 C 0.015625 28.351562 2.050781 26.296875 4.5625 26.296875 C 7.074219 26.296875 9.109375 28.351562 9.109375 30.882812 " fill-opacity="1" fill-rule="nonzero"/><path fill="#ffffff" d="M 16.347656 13.109375 C 16.484375 13.265625 16.453125 13.515625 16.28125 13.667969 C 16.109375 13.820312 15.859375 13.816406 15.726562 13.660156 C 15.589844 13.503906 15.621094 13.253906 15.792969 13.101562 C 15.964844 12.953125 16.214844 12.957031 16.347656 13.109375 " fill-opacity="1" fill-rule="nonzero"/><path fill="#ffffff" d="M 16.78125 13.660156 C 16.875 13.371094 16.820312 13.070312 16.632812 12.851562 C 16.453125 12.644531 16.175781 12.546875 15.890625 12.585938 C 15.875 12.488281 15.855469 12.394531 15.839844 12.285156 C 16.242188 12.21875 16.628906 12.347656 16.878906 12.632812 C 17.136719 12.933594 17.207031 13.347656 17.074219 13.746094 C 16.980469 13.722656 16.886719 13.695312 16.78125 13.660156 " fill-opacity="1" fill-rule="nonzero"/><path fill="#ffffff" d="M 17.429688 13.871094 L 17.148438 13.765625 C 17.351562 13.328125 17.300781 12.847656 17.011719 12.515625 C 16.734375 12.195312 16.285156 12.070312 15.839844 12.195312 L 15.785156 11.898438 C 16.34375 11.742188 16.90625 11.894531 17.257812 12.296875 C 17.621094 12.71875 17.6875 13.320312 17.429688 13.871094 " fill-opacity="1" fill-rule="nonzero"/><path fill="#ffffff" d="M 15.078125 12.097656 L 14.675781 12.449219 L 13.492188 11.082031 L 13.894531 10.726562 L 15.078125 12.097656 " fill-opacity="1" fill-rule="nonzero"/><path fill="#ffffff" d="M 14.410156 12.695312 C 14.527344 12.59375 14.617188 12.515625 14.617188 12.515625 L 13.425781 11.140625 C 13.425781 11.140625 12.742188 11.882812 13.027344 12.6875 C 13.300781 13.46875 13.789062 14.160156 14.382812 14.84375 C 14.976562 15.53125 15.589844 16.109375 16.324219 16.492188 C 17.074219 16.882812 17.894531 16.300781 17.894531 16.300781 L 16.703125 14.921875 C 16.703125 14.921875 16.613281 15.003906 16.5 15.105469 C 16.308594 15.269531 16.105469 15.144531 15.824219 14.910156 C 15.625 14.746094 15.105469 14.167969 15.105469 14.167969 C 15.101562 14.164062 14.648438 13.617188 14.511719 13.394531 C 14.320312 13.085938 14.222656 12.863281 14.410156 12.695312 " fill-opacity="1" fill-rule="nonzero"/><path fill="#ffffff" d="M 17.179688 14.519531 L 16.777344 14.875 L 17.960938 16.242188 L 18.363281 15.886719 L 17.179688 14.519531 " fill-opacity="1" fill-rule="nonzero"/><path fill="#ffffff" d="M 39.636719 19.101562 C 39.636719 19.152344 39.59375 19.195312 39.542969 19.195312 L 38.988281 19.195312 C 38.9375 19.195312 38.894531 19.152344 38.894531 19.101562 L 38.894531 18.542969 C 38.894531 18.492188 38.9375 18.449219 38.988281 18.449219 L 39.542969 18.449219 C 39.59375 18.449219 39.636719 18.492188 39.636719 18.542969 Z M 39.636719 19.992188 C 39.636719 20.042969 39.59375 20.085938 39.542969 20.085938 L 38.988281 20.085938 C 38.9375 20.085938 38.894531 20.042969 38.894531 19.992188 L 38.894531 19.433594 C 38.894531 19.378906 38.9375 19.335938 38.988281 19.335938 L 39.542969 19.335938 C 39.59375 19.335938 39.636719 19.378906 39.636719 19.433594 Z M 39.636719 21.765625 C 39.636719 21.820312 39.59375 21.863281 39.542969 21.863281 L 38.988281 21.863281 C 38.9375 21.863281 38.894531 21.820312 38.894531 21.765625 L 38.894531 20.328125 C 38.894531 20.269531 38.9375 20.226562 38.988281 20.226562 L 39.542969 20.226562 C 39.59375 20.226562 39.636719 20.269531 39.636719 20.328125 Z M 38.710938 19.101562 C 38.710938 19.152344 38.667969 19.195312 38.617188 19.195312 L 38.0625 19.195312 C 38.011719 19.195312 37.96875 19.152344 37.96875 19.101562 L 37.96875 18.542969 C 37.96875 18.492188 38.011719 18.449219 38.0625 18.449219 L 38.617188 18.449219 C 38.667969 18.449219 38.710938 18.492188 38.710938 18.542969 Z M 38.710938 19.992188 C 38.710938 20.042969 38.667969 20.085938 38.617188 20.085938 L 38.0625 20.085938 C 38.011719 20.085938 37.96875 20.042969 37.96875 19.992188 L 37.96875 19.433594 C 37.96875 19.378906 38.011719 19.335938 38.0625 19.335938 L 38.617188 19.335938 C 38.667969 19.335938 38.710938 19.378906 38.710938 19.433594 Z M 38.710938 20.878906 C 38.710938 20.933594 38.667969 20.976562 38.617188 20.976562 L 38.0625 20.976562 C 38.011719 20.976562 37.96875 20.933594 37.96875 20.878906 L 37.96875 20.324219 C 37.96875 20.269531 38.011719 20.226562 38.0625 20.226562 L 38.617188 20.226562 C 38.667969 20.226562 38.710938 20.269531 38.710938 20.324219 Z M 38.710938 21.769531 C 38.710938 21.820312 38.667969 21.863281 38.617188 21.863281 L 38.0625 21.863281 C 38.011719 21.863281 37.96875 21.820312 37.96875 21.769531 L 37.96875 21.210938 C 37.96875 21.160156 38.011719 21.117188 38.0625 21.117188 L 38.617188 21.117188 C 38.667969 21.117188 38.710938 21.160156 38.710938 21.210938 Z M 37.785156 19.101562 C 37.785156 19.152344 37.746094 19.195312 37.691406 19.195312 L 37.140625 19.195312 C 37.085938 19.195312 37.042969 19.152344 37.042969 19.101562 L 37.042969 18.542969 C 37.042969 18.492188 37.085938 18.449219 37.140625 18.449219 L 37.691406 18.449219 C 37.746094 18.449219 37.785156 18.492188 37.785156 18.542969 Z M 37.785156 19.992188 C 37.785156 20.042969 37.746094 20.085938 37.691406 20.085938 L 37.140625 20.085938 C 37.085938 20.085938 37.042969 20.042969 37.042969 19.992188 L 37.042969 19.433594 C 37.042969 19.378906 37.085938 19.335938 37.140625 19.335938 L 37.691406 19.335938 C 37.746094 19.335938 37.785156 19.378906 37.785156 19.433594 Z M 37.785156 20.878906 C 37.785156 20.933594 37.746094 20.976562 37.691406 20.976562 L 37.140625 20.976562 C 37.085938 20.976562 37.042969 20.933594 37.042969 20.878906 L 37.042969 20.324219 C 37.042969 20.269531 37.085938 20.226562 37.140625 20.226562 L 37.691406 20.226562 C 37.746094 20.226562 37.785156 20.269531 37.785156 20.324219 Z M 37.785156 21.769531 C 37.785156 21.820312 37.746094 21.863281 37.691406 21.863281 L 37.140625 21.863281 C 37.085938 21.863281 37.042969 21.820312 37.042969 21.769531 L 37.042969 21.210938 C 37.042969 21.160156 37.085938 21.117188 37.140625 21.117188 L 37.691406 21.117188 C 37.746094 21.117188 37.785156 21.160156 37.785156 21.210938 Z M 36.863281 19.101562 C 36.863281 19.152344 36.820312 19.195312 36.765625 19.195312 L 36.214844 19.195312 C 36.164062 19.195312 36.121094 19.152344 36.121094 19.101562 L 36.121094 18.542969 C 36.121094 18.492188 36.164062 18.449219 36.214844 18.449219 L 36.765625 18.449219 C 36.820312 18.449219 36.863281 18.492188 36.863281 18.542969 Z M 36.863281 19.992188 C 36.863281 20.042969 36.820312 20.085938 36.765625 20.085938 L 36.214844 20.085938 C 36.164062 20.085938 36.121094 20.042969 36.121094 19.992188 L 36.121094 19.433594 C 36.121094 19.378906 36.164062 19.335938 36.214844 19.335938 L 36.765625 19.335938 C 36.820312 19.335938 36.863281 19.378906 36.863281 19.433594 Z M 36.863281 20.878906 C 36.863281 20.933594 36.820312 20.976562 36.765625 20.976562 L 36.214844 20.976562 C 36.164062 20.976562 36.121094 20.933594 36.121094 20.878906 L 36.121094 20.324219 C 36.121094 20.269531 36.164062 20.226562 36.214844 20.226562 L 36.765625 20.226562 C 36.820312 20.226562 36.863281 20.269531 36.863281 20.324219 Z M 36.863281 21.769531 C 36.863281 21.820312 36.820312 21.863281 36.765625 21.863281 L 36.214844 21.863281 C 36.164062 21.863281 36.121094 21.820312 36.121094 21.769531 L 36.121094 21.210938 C 36.121094 21.160156 36.164062 21.117188 36.214844 21.117188 L 36.765625 21.117188 C 36.820312 21.117188 36.863281 21.160156 36.863281 21.210938 Z M 36.132812 16.679688 L 39.601562 16.679688 L 39.601562 17.878906 L 36.132812 17.878906 Z M 39.429688 16.042969 L 36.308594 16.042969 C 36.015625 16.042969 35.78125 16.28125 35.78125 16.574219 L 35.78125 22.144531 C 35.78125 22.433594 36.015625 22.671875 36.308594 22.671875 L 39.429688 22.671875 C 39.71875 22.671875 39.953125 22.433594 39.953125 22.144531 L 39.953125 16.574219 C 39.953125 16.28125 39.71875 16.042969 39.429688 16.042969 " fill-opacity="1" fill-rule="nonzero"/><path fill="#ffffff" d="M 40.105469 31.78125 L 39.667969 31.488281 L 39.820312 31.261719 L 40.253906 31.550781 L 40.105469 31.78125 " fill-opacity="1" fill-rule="nonzero"/><path fill="#ffffff" d="M 38.644531 34.324219 C 38.644531 34.324219 38.425781 34.597656 38.085938 34.371094 C 37.75 34.148438 37.902344 33.824219 37.902344 33.824219 L 39.296875 31.703125 L 40.039062 32.199219 L 38.644531 34.324219 " fill-opacity="1" fill-rule="nonzero"/><path fill="#ffffff" d="M 39.355469 31.398438 C 39.324219 31.445312 39.335938 31.511719 39.382812 31.539062 L 40.167969 32.066406 C 40.214844 32.097656 40.277344 32.085938 40.308594 32.039062 C 40.339844 31.992188 40.328125 31.929688 40.28125 31.898438 L 39.492188 31.371094 C 39.449219 31.339844 39.386719 31.351562 39.355469 31.398438 " fill-opacity="1" fill-rule="nonzero"/><path fill="#ffffff" d="M 40.285156 30.992188 C 39.585938 30.523438 39.394531 29.574219 39.859375 28.867188 C 40.324219 28.160156 41.265625 27.96875 41.964844 28.4375 C 42.664062 28.902344 42.855469 29.855469 42.394531 30.5625 C 41.929688 31.265625 40.984375 31.457031 40.285156 30.992188 M 42.179688 28.113281 C 41.300781 27.523438 40.121094 27.765625 39.539062 28.652344 C 38.957031 29.535156 39.195312 30.730469 40.074219 31.316406 C 40.949219 31.902344 42.132812 31.660156 42.714844 30.777344 C 43.296875 29.890625 43.058594 28.699219 42.179688 28.113281 " fill-opacity="1" fill-rule="nonzero"/><path fill="#8e7d7d" d="M 40.566406 29.035156 C 40.347656 29.035156 40.210938 28.980469 40.300781 28.839844 C 40.484375 28.5625 40.789062 28.410156 41.097656 28.410156 C 41.28125 28.410156 41.460938 28.460938 41.625 28.570312 C 41.925781 28.773438 41.050781 29.035156 40.566406 29.035156 " fill-opacity="1" fill-rule="nonzero"/><path fill="#3d4d57" d="M 10.820312 20.550781 C 10.820312 23.082031 8.785156 25.136719 6.273438 25.136719 C 3.765625 25.136719 1.730469 23.082031 1.730469 20.550781 C 1.730469 18.019531 3.765625 15.96875 6.273438 15.96875 C 8.785156 15.96875 10.820312 18.019531 10.820312 20.550781 " fill-opacity="1" fill-rule="nonzero"/><path fill="#ffffff" d="M 5.683594 34.035156 C 5.683594 34.429688 5.171875 34.746094 4.539062 34.746094 C 3.910156 34.746094 3.398438 34.429688 3.398438 34.035156 " fill-opacity="1" fill-rule="nonzero"/><path fill="#ffffff" d="M 6.890625 28.992188 C 6.890625 27.738281 5.847656 26.996094 4.5625 26.996094 C 3.277344 26.996094 2.234375 27.738281 2.234375 28.992188 C 2.234375 30.207031 2.640625 30.679688 3.09375 31.523438 C 3.320312 31.953125 3.378906 32.609375 3.378906 32.609375 L 5.742188 32.609375 C 5.742188 32.609375 5.667969 32.050781 5.882812 31.523438 C 6.265625 30.578125 6.890625 30.476562 6.890625 28.992188 " fill-opacity="1" fill-rule="nonzero"/><path fill="#ffffff" d="M 6.019531 32.933594 C 6.019531 33.070312 5.878906 33.179688 5.699219 33.179688 L 3.441406 33.179688 C 3.261719 33.179688 3.121094 33.070312 3.121094 32.933594 C 3.121094 32.796875 3.261719 32.6875 3.441406 32.6875 L 5.699219 32.6875 C 5.878906 32.6875 6.019531 32.796875 6.019531 32.933594 " fill-opacity="1" fill-rule="nonzero"/><path fill="#ffffff" d="M 3.421875 33.457031 L 5.664062 33.1875 C 5.675781 33.183594 5.6875 33.183594 5.699219 33.183594 L 5.699219 33.179688 L 3.398438 33.179688 L 3.398438 33.460938 L 3.421875 33.457031 " fill-opacity="1" fill-rule="nonzero"/><path fill="#ffffff" d="M 3.476562 33.941406 C 3.449219 33.945312 3.421875 33.945312 3.398438 33.945312 L 3.398438 33.949219 L 5.699219 33.949219 L 5.699219 33.675781 L 3.476562 33.941406 " fill-opacity="1" fill-rule="nonzero"/><path fill="#ffffff" d="M 4.820312 34.675781 C 4.820312 34.519531 4.695312 34.390625 4.539062 34.390625 C 4.382812 34.390625 4.257812 34.519531 4.257812 34.675781 C 4.257812 34.832031 4.382812 34.960938 4.539062 34.960938 C 4.695312 34.960938 4.820312 34.832031 4.820312 34.675781 " fill-opacity="1" fill-rule="nonzero"/><path fill="#ffffff" d="M 6.011719 33.390625 C 6.023438 33.488281 5.886719 33.582031 5.710938 33.601562 L 3.46875 33.871094 C 3.292969 33.894531 3.140625 33.832031 3.128906 33.738281 C 3.117188 33.640625 3.253906 33.546875 3.429688 33.523438 L 5.671875 33.253906 C 5.847656 33.234375 6 33.296875 6.011719 33.390625 " fill-opacity="1" fill-rule="nonzero"/><path fill="#ffffff" d="M 4.582031 22.480469 C 4.128906 22.480469 3.761719 22.113281 3.761719 21.65625 C 3.757812 21.199219 4.125 20.828125 4.578125 20.824219 C 5.03125 20.824219 5.398438 21.191406 5.402344 21.648438 C 5.402344 22.105469 5.035156 22.480469 4.582031 22.480469 Z M 6.679688 21.824219 L 6.675781 21.429688 L 6.148438 21.25 C 6.105469 21.082031 6.039062 20.925781 5.949219 20.785156 L 6.195312 20.269531 L 5.921875 19.996094 L 5.40625 20.25 C 5.269531 20.167969 5.117188 20.105469 4.957031 20.066406 L 4.765625 19.519531 L 4.378906 19.519531 L 4.191406 20.070312 C 4.03125 20.109375 3.882812 20.171875 3.746094 20.257812 L 3.230469 20.003906 L 2.953125 20.28125 L 3.203125 20.796875 C 3.117188 20.9375 3.050781 21.09375 3.011719 21.261719 L 2.480469 21.445312 L 2.484375 21.835938 L 3.003906 22.015625 C 3.042969 22.191406 3.109375 22.355469 3.199219 22.503906 L 2.964844 22.996094 L 3.242188 23.273438 L 3.722656 23.035156 C 3.871094 23.128906 4.039062 23.203125 4.21875 23.242188 L 4.394531 23.75 L 4.78125 23.75 L 4.953125 23.242188 C 5.132812 23.199219 5.300781 23.125 5.449219 23.03125 L 5.933594 23.265625 L 6.207031 22.984375 L 5.964844 22.496094 C 6.054688 22.34375 6.121094 22.179688 6.160156 22.003906 L 6.679688 21.824219 " fill-opacity="1" fill-rule="nonzero"/><path fill="#ffffff" d="M 6.796875 19.542969 C 6.792969 18.863281 7.335938 18.308594 8.011719 18.308594 C 8.683594 18.304688 9.234375 18.851562 9.234375 19.53125 C 9.238281 20.210938 8.695312 20.765625 8.019531 20.765625 C 7.34375 20.769531 6.796875 20.222656 6.796875 19.542969 Z M 9.59375 19.890625 L 10.113281 19.707031 L 10.113281 19.316406 L 9.582031 19.132812 C 9.539062 18.964844 9.472656 18.8125 9.386719 18.667969 L 9.632812 18.15625 L 9.355469 17.878906 L 8.839844 18.132812 C 8.703125 18.050781 8.550781 17.988281 8.390625 17.949219 L 8.203125 17.402344 L 7.8125 17.402344 L 7.628906 17.953125 C 7.46875 17.992188 7.316406 18.054688 7.179688 18.140625 L 6.664062 17.890625 L 6.390625 18.167969 L 6.640625 18.679688 C 6.550781 18.820312 6.484375 18.976562 6.445312 19.144531 L 5.917969 19.332031 L 5.917969 19.722656 L 6.4375 19.902344 C 6.476562 20.074219 6.542969 20.238281 6.636719 20.386719 L 6.398438 20.882812 L 6.675781 21.15625 L 7.15625 20.917969 C 7.308594 21.015625 7.472656 21.085938 7.652344 21.125 L 7.828125 21.632812 L 8.21875 21.632812 L 8.390625 21.125 C 8.566406 21.082031 8.734375 21.007812 8.882812 20.914062 L 9.367188 21.148438 L 9.640625 20.871094 L 9.402344 20.378906 C 9.488281 20.230469 9.558594 20.066406 9.59375 19.890625 " fill-opacity="1" fill-rule="nonzero"/><path fill="#ffffff" d="M 27.464844 14.519531 C 27.183594 14.519531 26.953125 14.746094 26.953125 15.03125 C 26.953125 15.316406 27.183594 15.546875 27.464844 15.546875 C 27.746094 15.546875 27.972656 15.316406 27.972656 15.03125 C 27.972656 14.746094 27.746094 14.519531 27.464844 14.519531 " fill-opacity="1" fill-rule="nonzero"/><path fill="#ffffff" d="M 30.019531 14.519531 C 29.738281 14.519531 29.511719 14.746094 29.511719 15.03125 C 29.511719 15.316406 29.738281 15.546875 30.019531 15.546875 C 30.300781 15.546875 30.527344 15.316406 30.527344 15.03125 C 30.527344 14.746094 30.300781 14.519531 30.019531 14.519531 " fill-opacity="1" fill-rule="nonzero"/><path fill="#ffffff" d="M 26.835938 11.582031 L 26.5625 12.371094 L 26.3125 11.582031 Z M 30.324219 13.277344 L 29.855469 13.277344 L 30.433594 11.582031 L 30.933594 11.582031 Z M 27.929688 13.277344 L 27.339844 13.277344 L 27.921875 11.582031 L 28.511719 11.582031 Z M 29.597656 11.582031 L 30.183594 11.582031 L 29.605469 13.277344 L 29.015625 13.277344 Z M 28.765625 13.277344 L 28.179688 13.277344 L 28.757812 11.582031 L 29.347656 11.582031 Z M 26.851562 13.277344 L 26.683594 12.746094 L 27.082031 11.582031 L 27.671875 11.582031 L 27.089844 13.277344 Z M 26.953125 14.460938 L 30.515625 14.460938 L 30.515625 14.273438 L 27.179688 14.273438 L 26.941406 13.515625 L 30.515625 13.515625 L 31.269531 11.332031 L 26.261719 11.332031 L 26.0625 10.90625 L 25.597656 10.625 C 25.566406 10.535156 25.480469 10.464844 25.375 10.464844 C 25.246094 10.464844 25.144531 10.570312 25.144531 10.699219 C 25.144531 10.832031 25.246094 10.933594 25.375 10.933594 C 25.445312 10.933594 25.503906 10.90625 25.546875 10.859375 L 25.925781 11.101562 L 26.953125 14.460938 " fill-opacity="1" fill-rule="nonzero"/><g clip-path="url(#e0ffb61d80)"><path fill="#c1c0c1" d="M 35.632812 50.855469 C 35.632812 51.445312 30.59375 51.921875 24.378906 51.921875 C 18.164062 51.921875 13.125 51.445312 13.125 50.855469 C 13.125 50.269531 18.164062 49.792969 24.378906 49.792969 C 30.59375 49.792969 35.632812 50.269531 35.632812 50.855469 " fill-opacity="1" fill-rule="nonzero"/></g><path fill="#f1511b" d="M 30.125 39.898438 L 16.019531 39.898438 L 16.019531 29.984375 L 30.125 29.984375 L 30.125 39.898438 " fill-opacity="1" fill-rule="nonzero"/><path fill="#f68712" d="M 30.125 29.984375 L 16.019531 29.984375 L 23.09375 25.027344 Z M 30.125 29.984375 " fill-opacity="1" fill-rule="nonzero"/><path fill="#d3d2d2" d="M 27.699219 38.734375 L 18.363281 38.734375 L 18.363281 27.992188 L 20.613281 26.195312 L 27.699219 26.195312 L 27.699219 38.734375 " fill-opacity="1" fill-rule="nonzero"/><path fill="#e9e9e9" d="M 18.363281 27.992188 L 20.613281 26.195312 L 20.03125 28.226562 Z M 18.363281 27.992188 " fill-opacity="1" fill-rule="nonzero"/><path fill="#544446" d="M 19.644531 29.90625 L 26.695312 29.90625 L 26.695312 28.578125 L 19.644531 28.578125 L 19.644531 29.90625 " fill-opacity="1" fill-rule="nonzero"/><path fill="#544446" d="M 19.644531 31.078125 L 23.03125 31.078125 L 23.03125 30.414062 L 19.644531 30.414062 L 19.644531 31.078125 " fill-opacity="1" fill-rule="nonzero"/><path fill="#544446" d="M 19.644531 32.054688 L 23.03125 32.054688 L 23.03125 31.390625 L 19.644531 31.390625 L 19.644531 32.054688 " fill-opacity="1" fill-rule="nonzero"/><path fill="#544446" d="M 19.644531 33.03125 L 23.03125 33.03125 L 23.03125 32.367188 L 19.644531 32.367188 L 19.644531 33.03125 " fill-opacity="1" fill-rule="nonzero"/><path fill="#544446" d="M 19.644531 34.007812 L 26.695312 34.007812 L 26.695312 33.34375 L 19.644531 33.34375 L 19.644531 34.007812 " fill-opacity="1" fill-rule="nonzero"/><path fill="#544446" d="M 19.644531 35.023438 L 26.695312 35.023438 L 26.695312 34.359375 L 19.644531 34.359375 L 19.644531 35.023438 " fill-opacity="1" fill-rule="nonzero"/><path fill="#544446" d="M 19.644531 36.039062 L 26.695312 36.039062 L 26.695312 35.375 L 19.644531 35.375 L 19.644531 36.039062 " fill-opacity="1" fill-rule="nonzero"/><path fill="#3aaa87" d="M 23.324219 33.03125 L 26.695312 33.03125 L 26.695312 30.414062 L 23.324219 30.414062 L 23.324219 33.03125 " fill-opacity="1" fill-rule="nonzero"/><path fill="#f36917" d="M 23.070312 34.941406 L 16.019531 39.898438 L 16.019531 29.984375 Z M 23.070312 34.941406 " fill-opacity="1" fill-rule="nonzero"/><path fill="#f36917" d="M 23.070312 34.941406 L 30.125 39.898438 L 30.125 29.984375 Z M 23.070312 34.941406 " fill-opacity="1" fill-rule="nonzero"/><path fill="#f68712" d="M 30.125 39.898438 L 16.019531 39.898438 L 23.09375 34.941406 Z M 30.125 39.898438 " fill-opacity="1" fill-rule="nonzero"/><path fill="#29242c" d="M 19.925781 48.566406 C 19.925781 49.832031 18.90625 50.855469 17.652344 50.855469 C 16.398438 50.855469 15.382812 49.832031 15.382812 48.566406 C 15.382812 47.304688 16.398438 46.277344 17.652344 46.277344 C 18.90625 46.277344 19.925781 47.304688 19.925781 48.566406 " fill-opacity="1" fill-rule="nonzero"/><path fill="#29242c" d="M 31.3125 48.566406 C 31.3125 49.832031 30.296875 50.855469 29.042969 50.855469 C 27.789062 50.855469 26.769531 49.832031 26.769531 48.566406 C 26.769531 47.304688 27.789062 46.277344 29.042969 46.277344 C 30.296875 46.277344 31.3125 47.304688 31.3125 48.566406 " fill-opacity="1" fill-rule="nonzero"/><path fill="#29242c" d="M 14.925781 40.746094 L 12.527344 33.191406 L 33.109375 33.191406 L 30.402344 40.746094 Z M 34.613281 32.082031 L 12.292969 32.082031 L 11.398438 30.179688 L 8.9375 28.699219 L 8.9375 29.859375 L 10.804688 31.050781 L 15.382812 46.03125 L 31.261719 46.03125 L 31.261719 45.183594 L 16.378906 45.183594 L 15.332031 41.804688 L 31.261719 41.804688 L 34.613281 32.082031 " fill-opacity="1" fill-rule="nonzero"/><path fill="#29242c" d="M 9.382812 29.265625 C 9.382812 29.84375 8.917969 30.3125 8.347656 30.3125 C 7.777344 30.3125 7.3125 29.84375 7.3125 29.265625 C 7.3125 28.691406 7.777344 28.222656 8.347656 28.222656 C 8.917969 28.222656 9.382812 28.691406 9.382812 29.265625 " fill-opacity="1" fill-rule="nonzero"/><path fill="#29242c" d="M 28.121094 41.269531 L 27.132812 40.925781 L 30.0625 32.367188 L 31.054688 32.710938 L 28.121094 41.269531 " fill-opacity="1" fill-rule="nonzero"/><path fill="#29242c" d="M 24.390625 41.269531 L 23.398438 40.925781 L 26.328125 32.367188 L 27.320312 32.710938 L 24.390625 41.269531 " fill-opacity="1" fill-rule="nonzero"/><path fill="#29242c" d="M 20.65625 41.269531 L 19.664062 40.925781 L 22.59375 32.367188 L 23.585938 32.710938 L 20.65625 41.269531 " fill-opacity="1" fill-rule="nonzero"/><path fill="#29242c" d="M 16.921875 41.269531 L 15.929688 40.925781 L 18.863281 32.367188 L 19.851562 32.710938 L 16.921875 41.269531 " fill-opacity="1" fill-rule="nonzero"/><path fill="#29242c" d="M 14.117188 38.5625 L 13.125 38.21875 L 15.128906 32.367188 L 16.121094 32.710938 L 14.117188 38.5625 " fill-opacity="1" fill-rule="nonzero"/></svg>