<svg xmlns="http://www.w3.org/2000/svg" xmlns:xlink="http://www.w3.org/1999/xlink" width="40" zoomAndPan="magnify" viewBox="0 0 30 30.000001" height="40" preserveAspectRatio="xMidYMid meet" version="1.0"><defs><clipPath id="f1237a5110"><path d="M 1.1875 16 L 13 16 L 13 21.773438 L 1.1875 21.773438 Z M 1.1875 16 " clip-rule="nonzero"/></clipPath><clipPath id="ed02bfa1f8"><path d="M 13 16 L 27 16 L 27 21.773438 L 13 21.773438 Z M 13 16 " clip-rule="nonzero"/></clipPath><clipPath id="d0038065fa"><path d="M 18 7.257812 L 28.769531 7.257812 L 28.769531 18 L 18 18 Z M 18 7.257812 " clip-rule="nonzero"/></clipPath><clipPath id="10abb1ba4a"><path d="M 27 19 L 28.769531 19 L 28.769531 21 L 27 21 Z M 27 19 " clip-rule="nonzero"/></clipPath></defs><g clip-path="url(#f1237a5110)"><path fill="#00618a" d="M 1.28125 20.519531 L 2.183594 20.519531 L 2.183594 16.953125 L 3.582031 20.0625 C 3.746094 20.4375 3.972656 20.574219 4.414062 20.574219 C 4.855469 20.574219 5.074219 20.441406 5.238281 20.0625 L 6.636719 16.953125 L 6.636719 20.519531 L 7.539062 20.519531 L 7.539062 16.960938 C 7.539062 16.613281 7.398438 16.445312 7.113281 16.355469 C 6.425781 16.144531 5.96875 16.328125 5.757812 16.792969 L 4.386719 19.859375 L 3.058594 16.789062 C 2.859375 16.328125 2.390625 16.140625 1.707031 16.355469 C 1.421875 16.441406 1.28125 16.609375 1.28125 16.957031 Z M 8.289062 17.617188 L 9.191406 17.617188 L 9.191406 19.582031 C 9.183594 19.6875 9.222656 19.9375 9.71875 19.945312 C 9.972656 19.949219 11.664062 19.945312 11.679688 19.945312 L 11.679688 17.605469 L 12.585938 17.605469 C 12.589844 17.605469 12.585938 20.796875 12.585938 20.8125 C 12.589844 21.597656 11.609375 21.769531 11.15625 21.78125 L 8.308594 21.78125 L 8.308594 21.175781 L 11.164062 21.175781 C 11.742188 21.113281 11.675781 20.824219 11.675781 20.726562 L 11.675781 20.488281 L 9.757812 20.488281 C 8.863281 20.480469 8.296875 20.09375 8.289062 19.644531 C 8.289062 19.601562 8.308594 17.636719 8.289062 17.617188 Z M 8.289062 17.617188 " fill-opacity="1" fill-rule="nonzero"/></g><g clip-path="url(#ed02bfa1f8)"><path fill="#e48e00" d="M 13.28125 20.519531 L 15.875 20.519531 C 16.179688 20.519531 16.472656 20.457031 16.707031 20.347656 C 17.097656 20.167969 17.289062 19.921875 17.289062 19.605469 L 17.289062 18.945312 C 17.289062 18.683594 17.074219 18.441406 16.648438 18.277344 C 16.421875 18.191406 16.144531 18.144531 15.875 18.144531 L 14.78125 18.144531 C 14.417969 18.144531 14.246094 18.035156 14.199219 17.792969 C 14.191406 17.761719 14.191406 17.738281 14.191406 17.710938 L 14.191406 17.300781 C 14.191406 17.277344 14.191406 17.253906 14.199219 17.222656 C 14.246094 17.039062 14.339844 16.988281 14.660156 16.957031 C 14.6875 16.957031 14.722656 16.949219 14.746094 16.949219 L 17.324219 16.949219 L 17.324219 16.347656 L 14.792969 16.347656 C 14.425781 16.347656 14.234375 16.371094 14.0625 16.421875 C 13.523438 16.589844 13.289062 16.859375 13.289062 17.324219 L 13.289062 17.851562 C 13.289062 18.253906 13.75 18.601562 14.519531 18.683594 C 14.609375 18.691406 14.695312 18.695312 14.78125 18.695312 L 15.71875 18.695312 C 15.753906 18.695312 15.789062 18.695312 15.8125 18.703125 C 16.101562 18.722656 16.222656 18.777344 16.308594 18.882812 C 16.363281 18.933594 16.378906 18.984375 16.378906 19.042969 L 16.378906 19.570312 C 16.378906 19.632812 16.335938 19.714844 16.25 19.78125 C 16.171875 19.851562 16.039062 19.898438 15.867188 19.910156 C 15.832031 19.910156 15.804688 19.917969 15.769531 19.917969 L 13.28125 19.917969 Z M 22.917969 19.472656 C 22.917969 20.089844 23.378906 20.4375 24.308594 20.507812 C 24.394531 20.515625 24.480469 20.519531 24.566406 20.519531 L 26.917969 20.519531 L 26.917969 19.917969 L 24.550781 19.917969 C 24.019531 19.917969 23.820312 19.785156 23.820312 19.464844 L 23.820312 16.351562 L 22.917969 16.351562 Z M 17.867188 19.503906 L 17.867188 17.355469 C 17.867188 16.808594 18.25 16.480469 19.003906 16.375 C 19.085938 16.363281 19.167969 16.359375 19.25 16.359375 L 20.960938 16.359375 C 21.046875 16.359375 21.128906 16.363281 21.214844 16.375 C 21.96875 16.480469 22.351562 16.808594 22.351562 17.355469 L 22.351562 19.503906 C 22.351562 19.945312 22.191406 20.183594 21.816406 20.335938 L 22.703125 21.140625 L 21.65625 21.140625 L 20.9375 20.492188 L 20.214844 20.535156 L 19.25 20.535156 C 19.082031 20.535156 18.910156 20.511719 18.71875 20.460938 C 18.144531 20.304688 17.867188 20.003906 17.867188 19.503906 Z M 18.839844 19.449219 C 18.839844 19.480469 18.847656 19.507812 18.855469 19.542969 C 18.910156 19.792969 19.144531 19.929688 19.5 19.929688 L 20.320312 19.929688 L 19.566406 19.25 L 20.613281 19.25 L 21.269531 19.84375 C 21.390625 19.78125 21.46875 19.679688 21.496094 19.554688 C 21.503906 19.523438 21.503906 19.496094 21.503906 19.46875 L 21.503906 17.40625 C 21.503906 17.386719 21.503906 17.355469 21.496094 17.328125 C 21.441406 17.09375 21.210938 16.960938 20.863281 16.960938 L 19.5 16.960938 C 19.101562 16.960938 18.839844 17.136719 18.839844 17.40625 Z M 18.839844 19.449219 " fill-opacity="1" fill-rule="nonzero"/></g><g clip-path="url(#d0038065fa)"><path fill="#00618a" d="M 27.710938 15.351562 C 27.15625 15.335938 26.734375 15.386719 26.371094 15.539062 C 26.269531 15.582031 26.105469 15.585938 26.089844 15.714844 C 26.144531 15.773438 26.152344 15.863281 26.199219 15.933594 C 26.285156 16.074219 26.429688 16.261719 26.5625 16.359375 C 26.703125 16.46875 26.851562 16.582031 27.003906 16.675781 C 27.273438 16.84375 27.578125 16.9375 27.839844 17.101562 C 27.992188 17.203125 28.144531 17.324219 28.296875 17.433594 C 28.371094 17.488281 28.421875 17.574219 28.515625 17.609375 L 28.515625 17.59375 C 28.464844 17.527344 28.453125 17.4375 28.40625 17.371094 L 28.203125 17.167969 C 28 16.898438 27.746094 16.667969 27.476562 16.472656 C 27.261719 16.316406 26.777344 16.105469 26.6875 15.855469 L 26.671875 15.839844 C 26.824219 15.824219 27.003906 15.765625 27.144531 15.730469 C 27.382812 15.664062 27.59375 15.683594 27.839844 15.617188 L 28.171875 15.523438 L 28.171875 15.460938 C 28.046875 15.332031 27.957031 15.164062 27.824219 15.050781 C 27.46875 14.75 27.085938 14.449219 26.6875 14.199219 C 26.46875 14.058594 26.195312 13.96875 25.960938 13.851562 C 25.882812 13.808594 25.746094 13.789062 25.695312 13.722656 C 25.570312 13.566406 25.503906 13.367188 25.410156 13.1875 C 25.210938 12.804688 25.019531 12.390625 24.84375 11.988281 C 24.722656 11.714844 24.644531 11.445312 24.496094 11.199219 C 23.78125 10.019531 23.007812 9.308594 21.8125 8.609375 C 21.558594 8.460938 21.253906 8.398438 20.929688 8.324219 L 20.410156 8.292969 C 20.304688 8.246094 20.195312 8.117188 20.09375 8.054688 C 19.699219 7.804688 18.683594 7.261719 18.390625 7.976562 C 18.207031 8.425781 18.667969 8.867188 18.832031 9.097656 C 18.949219 9.257812 19.097656 9.4375 19.179688 9.617188 C 19.234375 9.734375 19.242188 9.855469 19.289062 9.980469 C 19.40625 10.289062 19.503906 10.625 19.652344 10.914062 C 19.726562 11.058594 19.8125 11.210938 19.90625 11.339844 C 19.964844 11.417969 20.0625 11.453125 20.078125 11.574219 C 19.980469 11.710938 19.976562 11.925781 19.921875 12.097656 C 19.675781 12.875 19.765625 13.84375 20.125 14.417969 C 20.234375 14.59375 20.496094 14.972656 20.851562 14.828125 C 21.164062 14.703125 21.09375 14.308594 21.183594 13.960938 C 21.203125 13.882812 21.191406 13.824219 21.230469 13.769531 L 21.230469 13.785156 L 21.515625 14.355469 C 21.722656 14.695312 22.097656 15.046875 22.414062 15.289062 C 22.578125 15.410156 22.707031 15.625 22.917969 15.699219 L 22.917969 15.683594 L 22.902344 15.683594 C 22.859375 15.617188 22.796875 15.589844 22.746094 15.539062 C 22.621094 15.417969 22.484375 15.269531 22.382812 15.128906 C 22.09375 14.738281 21.839844 14.3125 21.609375 13.867188 C 21.5 13.652344 21.402344 13.417969 21.308594 13.203125 C 21.273438 13.121094 21.273438 12.992188 21.199219 12.949219 C 21.097656 13.109375 20.945312 13.238281 20.867188 13.425781 C 20.742188 13.722656 20.726562 14.085938 20.679688 14.464844 C 20.652344 14.476562 20.664062 14.46875 20.648438 14.480469 C 20.425781 14.429688 20.351562 14.203125 20.269531 14.007812 C 20.0625 13.515625 20.023438 12.726562 20.207031 12.160156 C 20.253906 12.015625 20.464844 11.554688 20.378906 11.417969 C 20.335938 11.285156 20.203125 11.203125 20.125 11.101562 C 20.03125 10.976562 19.9375 10.808594 19.875 10.660156 C 19.703125 10.277344 19.625 9.847656 19.449219 9.460938 C 19.363281 9.273438 19.21875 9.085938 19.101562 8.925781 C 18.96875 8.742188 18.824219 8.609375 18.722656 8.386719 C 18.6875 8.308594 18.636719 8.183594 18.691406 8.105469 C 18.703125 8.050781 18.734375 8.019531 18.785156 8.007812 C 18.878906 7.9375 19.132812 8.03125 19.226562 8.074219 C 19.480469 8.179688 19.691406 8.277344 19.90625 8.421875 C 20.007812 8.488281 20.113281 8.621094 20.238281 8.65625 L 20.378906 8.65625 C 20.601562 8.707031 20.847656 8.671875 21.058594 8.734375 C 21.421875 8.847656 21.753906 9.019531 22.050781 9.210938 C 22.960938 9.785156 23.703125 10.601562 24.210938 11.582031 C 24.292969 11.738281 24.328125 11.886719 24.402344 12.054688 C 24.546875 12.390625 24.730469 12.734375 24.875 13.066406 C 25.019531 13.394531 25.160156 13.722656 25.363281 13.996094 C 25.46875 14.140625 25.882812 14.21875 26.074219 14.296875 C 26.203125 14.351562 26.421875 14.410156 26.546875 14.484375 C 26.785156 14.628906 27.015625 14.800781 27.238281 14.960938 C 27.351562 15.039062 27.695312 15.210938 27.714844 15.355469 Z M 27.710938 15.351562 " fill-opacity="1" fill-rule="nonzero"/></g><path fill="#00618a" d="M 20.664062 9.332031 C 20.546875 9.332031 20.464844 9.347656 20.378906 9.363281 L 20.378906 9.378906 L 20.394531 9.378906 C 20.449219 9.496094 20.546875 9.566406 20.617188 9.664062 L 20.773438 9.996094 L 20.789062 9.980469 C 20.886719 9.910156 20.929688 9.800781 20.929688 9.632812 C 20.890625 9.59375 20.886719 9.539062 20.851562 9.492188 C 20.808594 9.425781 20.71875 9.386719 20.664062 9.332031 Z M 20.664062 9.332031 " fill-opacity="1" fill-rule="evenodd"/><g clip-path="url(#10abb1ba4a)"><path fill="#e48e00" d="M 27.34375 19.902344 C 27.34375 20.296875 27.65625 20.566406 28.007812 20.566406 C 28.359375 20.566406 28.671875 20.296875 28.671875 19.902344 C 28.671875 19.503906 28.359375 19.234375 28.007812 19.234375 C 27.65625 19.234375 27.34375 19.503906 27.34375 19.902344 Z M 28.523438 19.902344 C 28.523438 20.203125 28.292969 20.429688 28.007812 20.429688 C 27.71875 20.429688 27.492188 20.203125 27.492188 19.902344 C 27.492188 19.597656 27.71875 19.375 28.007812 19.375 C 28.292969 19.375 28.523438 19.597656 28.523438 19.902344 Z M 28.1875 20.28125 L 28.335938 20.28125 L 28.117188 19.945312 C 28.234375 19.933594 28.324219 19.878906 28.324219 19.738281 C 28.324219 19.585938 28.226562 19.519531 28.039062 19.519531 L 27.742188 19.519531 L 27.742188 20.28125 L 27.871094 20.28125 L 27.871094 19.953125 L 27.988281 19.953125 Z M 27.871094 19.84375 L 27.871094 19.628906 L 28.015625 19.628906 C 28.09375 19.628906 28.1875 19.640625 28.1875 19.730469 C 28.1875 19.835938 28.101562 19.84375 28.007812 19.84375 Z M 27.871094 19.84375 " fill-opacity="1" fill-rule="evenodd"/></g></svg>