<svg xmlns="http://www.w3.org/2000/svg" xmlns:xlink="http://www.w3.org/1999/xlink" width="40" zoomAndPan="magnify" viewBox="0 0 30 30.000001" height="40" preserveAspectRatio="xMidYMid meet" version="1.0"><defs><clipPath id="6ae482a33c"><path d="M 0.96875 6.054688 L 29.277344 6.054688 L 29.277344 22.746094 L 0.96875 22.746094 Z M 0.96875 6.054688 " clip-rule="nonzero"/></clipPath></defs><g clip-path="url(#6ae482a33c)"><path fill="#000000" d="M 7.652344 10.40625 L 12.988281 10.40625 L 12.988281 10.820312 L 8.140625 10.820312 L 8.140625 13.945312 L 12.699219 13.945312 L 12.699219 14.359375 L 8.140625 14.359375 L 8.140625 17.785156 L 13.042969 17.785156 L 13.042969 18.203125 L 7.652344 18.203125 Z M 13.464844 10.40625 L 14.03125 10.40625 L 16.546875 13.835938 L 19.113281 10.40625 L 22.605469 6.054688 L 16.867188 14.195312 L 19.824219 18.203125 L 19.234375 18.203125 L 16.546875 14.554688 L 13.84375 18.203125 L 13.265625 18.203125 L 16.246094 14.195312 Z M 20.035156 10.820312 L 20.035156 10.40625 L 26.117188 10.40625 L 26.117188 10.820312 L 23.316406 10.820312 L 23.316406 18.199219 L 22.828125 18.199219 L 22.828125 10.820312 Z M 0.976562 10.40625 L 1.585938 10.40625 L 10.019531 22.746094 L 6.535156 18.203125 L 1.488281 10.996094 L 1.464844 18.203125 L 0.976562 18.203125 Z M 26.070312 17.660156 C 25.96875 17.660156 25.894531 17.585938 25.894531 17.488281 C 25.894531 17.390625 25.96875 17.3125 26.070312 17.3125 C 26.171875 17.3125 26.242188 17.390625 26.242188 17.488281 C 26.242188 17.585938 26.171875 17.660156 26.070312 17.660156 Z M 26.550781 17.203125 L 26.8125 17.203125 C 26.816406 17.34375 26.917969 17.4375 27.070312 17.4375 C 27.242188 17.4375 27.335938 17.335938 27.335938 17.148438 L 27.335938 15.960938 L 27.605469 15.960938 L 27.605469 17.148438 C 27.605469 17.488281 27.402344 17.683594 27.074219 17.683594 C 26.761719 17.683594 26.550781 17.492188 26.550781 17.203125 Z M 27.953125 17.1875 L 28.21875 17.1875 C 28.238281 17.347656 28.398438 17.449219 28.628906 17.449219 C 28.84375 17.449219 29 17.34375 29 17.191406 C 29 17.066406 28.898438 16.988281 28.671875 16.933594 L 28.453125 16.882812 C 28.140625 16.8125 28 16.664062 28 16.417969 C 28 16.117188 28.25 15.917969 28.625 15.917969 C 28.972656 15.917969 29.226562 16.117188 29.242188 16.402344 L 28.984375 16.402344 C 28.957031 16.246094 28.820312 16.148438 28.621094 16.148438 C 28.410156 16.148438 28.269531 16.25 28.269531 16.402344 C 28.269531 16.519531 28.359375 16.589844 28.582031 16.640625 L 28.773438 16.6875 C 29.125 16.765625 29.269531 16.90625 29.269531 17.160156 C 29.269531 17.480469 29.015625 17.683594 28.609375 17.683594 C 28.226562 17.683594 27.972656 17.488281 27.953125 17.1875 Z M 27.953125 17.1875 " fill-opacity="1" fill-rule="nonzero"/></g></svg>