<svg xmlns="http://www.w3.org/2000/svg" xmlns:xlink="http://www.w3.org/1999/xlink" width="40" zoomAndPan="magnify" viewBox="0 0 30 30.000001" height="40" preserveAspectRatio="xMidYMid meet" version="1.0"><defs><clipPath id="ee1480926b"><path d="M 2 0.890625 L 28.066406 0.890625 L 28.066406 28.46875 L 2 28.46875 Z M 2 0.890625 " clip-rule="nonzero"/></clipPath></defs><path fill="#000000" d="M 26.265625 17.890625 C 26.265625 17.890625 26.265625 17.894531 26.265625 17.894531 C 26.261719 17.894531 26.261719 17.890625 26.261719 17.890625 C 26.261719 17.890625 26.261719 17.886719 26.265625 17.886719 C 26.265625 17.886719 26.265625 17.890625 26.265625 17.890625 Z M 26.265625 17.890625 " fill-opacity="1" fill-rule="nonzero"/><path fill="#32648d" d="M 22.929688 17.671875 L 22.929688 17.679688 C 22.765625 17.738281 22.628906 17.765625 22.515625 17.816406 C 22.398438 17.863281 22.304688 17.949219 22.25 18.058594 C 22.179688 18.191406 22.121094 18.421875 22.136719 18.816406 C 22.183594 18.851562 22.238281 18.878906 22.296875 18.898438 L 22.300781 18.898438 C 22.492188 18.957031 22.8125 18.996094 23.167969 18.988281 C 23.875 18.980469 24.75 18.8125 25.214844 18.589844 C 25.613281 18.398438 25.957031 18.167969 26.261719 17.890625 C 24.710938 18.21875 23.835938 18.128906 23.300781 17.902344 C 23.160156 17.84375 23.035156 17.765625 22.929688 17.671875 Z M 22.929688 17.671875 " fill-opacity="1" fill-rule="nonzero"/><path fill="#32648d" d="M 21.339844 5.621094 L 21.347656 5.628906 L 21.355469 5.640625 Z M 21.339844 5.621094 " fill-opacity="1" fill-rule="nonzero"/><path fill="#32648d" d="M 15.414062 22.882812 C 15.414062 22.855469 15.414062 22.828125 15.414062 22.796875 C 15.414062 22.785156 15.410156 22.777344 15.410156 22.765625 Z M 15.414062 22.882812 " fill-opacity="1" fill-rule="nonzero"/><path fill="#32648d" d="M 14.226562 17.855469 C 14.160156 17.820312 14.082031 17.796875 14 17.785156 L 13.972656 17.785156 C 13.914062 17.789062 13.828125 17.8125 13.664062 18 C 13.277344 18.441406 13.140625 18.722656 12.820312 18.984375 C 12.5 19.242188 12.085938 19.382812 11.257812 19.554688 C 10.996094 19.609375 10.84375 19.671875 10.746094 19.722656 C 10.777344 19.75 10.773438 19.753906 10.824219 19.78125 C 10.945312 19.847656 11.101562 19.910156 11.226562 19.941406 C 11.582031 20.035156 12.167969 20.140625 12.777344 20.035156 C 13.386719 19.925781 14.023438 19.628906 14.566406 18.847656 C 14.660156 18.714844 14.667969 18.515625 14.59375 18.304688 C 14.515625 18.089844 14.34375 17.90625 14.226562 17.855469 Z M 14.226562 17.855469 " fill-opacity="1" fill-rule="nonzero"/><path fill="#32648d" d="M 18.773438 2.601562 L 18.707031 2.613281 C 18.730469 2.609375 18.753906 2.605469 18.773438 2.601562 Z M 18.773438 2.601562 " fill-opacity="1" fill-rule="nonzero"/><path fill="#32648d" d="M 21.90625 8.753906 C 21.148438 8.765625 20.726562 8.964844 20.503906 9.222656 C 20.1875 9.59375 20.160156 10.246094 20.355469 11.042969 C 20.550781 11.84375 20.953125 12.742188 21.328125 13.484375 C 21.519531 13.859375 21.703125 14.191406 21.851562 14.464844 C 22 14.738281 22.109375 14.933594 22.175781 15.097656 C 22.234375 15.25 22.304688 15.386719 22.371094 15.511719 C 22.664062 14.878906 22.71875 14.257812 22.6875 13.609375 C 22.648438 12.808594 22.46875 11.988281 22.496094 11.160156 C 22.523438 10.1875 22.710938 9.558594 22.726562 8.808594 C 22.480469 8.773438 22.195312 8.753906 21.90625 8.753906 Z M 22.042969 9.332031 L 22.042969 9.339844 C 22.042969 9.34375 22.042969 9.347656 22.042969 9.351562 C 22.042969 9.402344 22.027344 9.453125 22.003906 9.496094 L 22.003906 9.492188 C 21.96875 9.558594 21.929688 9.613281 21.882812 9.664062 C 21.769531 9.789062 21.625 9.875 21.457031 9.90625 L 21.453125 9.90625 C 21.429688 9.910156 21.402344 9.910156 21.375 9.910156 C 21.230469 9.910156 21.101562 9.863281 20.996094 9.789062 C 20.941406 9.75 20.894531 9.703125 20.851562 9.65625 L 20.851562 9.652344 C 20.816406 9.613281 20.792969 9.566406 20.78125 9.511719 L 20.78125 9.507812 C 20.78125 9.503906 20.78125 9.496094 20.78125 9.492188 C 20.78125 9.441406 20.800781 9.398438 20.828125 9.363281 C 20.867188 9.320312 20.910156 9.285156 20.957031 9.261719 L 20.960938 9.261719 C 21.066406 9.199219 21.210938 9.152344 21.375 9.128906 C 21.4375 9.121094 21.496094 9.113281 21.554688 9.113281 L 21.554688 9.117188 L 21.609375 9.117188 C 21.679688 9.121094 21.75 9.128906 21.808594 9.140625 C 21.867188 9.15625 21.917969 9.175781 21.960938 9.203125 C 22.003906 9.234375 22.035156 9.277344 22.042969 9.332031 Z M 22.042969 9.332031 " fill-opacity="1" fill-rule="nonzero"/><path fill="#32648d" d="M 9.511719 13.777344 C 9.511719 13.570312 9.527344 13.371094 9.558594 13.171875 L 9.554688 13.195312 C 9.671875 12.351562 9.6875 11.566406 9.671875 10.941406 C 9.660156 10.335938 9.617188 9.933594 9.617188 9.679688 C 9.617188 9.675781 9.617188 9.675781 9.617188 9.671875 C 9.617188 9.667969 9.617188 9.664062 9.617188 9.660156 L 9.617188 9.652344 L 9.613281 9.648438 L 9.613281 9.644531 C 9.613281 9.644531 9.613281 9.640625 9.613281 9.640625 C 9.613281 8.289062 9.847656 6.996094 10.273438 5.796875 C 10.585938 4.949219 11.050781 4.089844 11.746094 3.390625 C 11.0625 3.160156 9.847656 2.808594 8.535156 2.742188 C 8.410156 2.738281 8.261719 2.730469 8.113281 2.730469 L 8.113281 2.734375 C 7.972656 2.734375 7.832031 2.738281 7.691406 2.746094 C 6.566406 2.8125 5.503906 3.144531 4.746094 3.972656 C 3.984375 4.796875 3.484375 6.148438 3.59375 8.390625 C 3.613281 8.8125 3.792969 10 4.101562 11.410156 C 4.414062 12.820312 4.847656 14.484375 5.371094 15.949219 C 5.898438 17.417969 6.535156 18.691406 7.140625 19.296875 C 7.445312 19.597656 7.710938 19.722656 7.953125 19.710938 C 8.191406 19.699219 8.484375 19.554688 8.839844 19.121094 C 9.535156 18.261719 10.195312 17.5 10.875 16.761719 L 10.851562 16.785156 C 10.03125 16.050781 9.511719 14.976562 9.511719 13.777344 Z M 9.511719 13.777344 " fill-opacity="1" fill-rule="nonzero"/><path fill="#32648d" d="M 15.503906 2.675781 C 14.1875 2.675781 13.246094 3.085938 12.527344 3.695312 C 11.789062 4.324219 11.296875 5.1875 10.972656 6.070312 C 10.585938 7.117188 10.453125 8.132812 10.398438 8.820312 L 10.414062 8.8125 C 10.8125 8.585938 11.332031 8.355469 11.890625 8.222656 C 12.449219 8.09375 13.050781 8.050781 13.597656 8.269531 C 14.140625 8.484375 14.59375 8.996094 14.753906 9.769531 C 15.539062 13.480469 14.511719 14.859375 14.132812 15.902344 C 14.011719 16.203125 13.886719 16.585938 13.785156 16.980469 L 13.765625 17.054688 C 13.8125 17.042969 13.863281 17.03125 13.910156 17.027344 C 14.175781 17.003906 14.386719 17.09375 14.507812 17.148438 C 14.890625 17.3125 15.152344 17.652344 15.292969 18.039062 C 15.328125 18.140625 15.355469 18.25 15.371094 18.363281 C 15.386719 18.402344 15.394531 18.445312 15.394531 18.492188 C 15.394531 18.496094 15.394531 18.503906 15.394531 18.507812 C 15.375 19.078125 15.363281 19.746094 15.363281 20.417969 C 15.363281 21.214844 15.378906 22.007812 15.410156 22.796875 C 15.433594 23.398438 15.472656 23.929688 15.519531 24.347656 C 15.566406 24.773438 15.632812 25.09375 15.675781 25.203125 C 15.820312 25.570312 16.027344 26.046875 16.402344 26.371094 C 16.777344 26.695312 17.320312 26.914062 18.304688 26.695312 C 19.160156 26.507812 19.6875 26.246094 20.039062 25.871094 C 20.390625 25.496094 20.601562 24.976562 20.734375 24.175781 C 20.9375 22.980469 21.339844 19.507812 21.390625 18.855469 C 21.367188 18.363281 21.4375 17.984375 21.59375 17.695312 C 21.75 17.398438 21.996094 17.21875 22.207031 17.121094 C 22.3125 17.070312 22.410156 17.039062 22.492188 17.015625 C 22.394531 16.871094 22.304688 16.75 22.210938 16.632812 L 22.222656 16.644531 C 21.929688 16.285156 21.679688 15.871094 21.492188 15.425781 L 21.480469 15.390625 C 21.367188 15.152344 21.269531 14.972656 21.171875 14.796875 L 21.195312 14.839844 C 21.046875 14.566406 20.859375 14.226562 20.664062 13.84375 C 20.273438 13.074219 19.847656 12.140625 19.625 11.230469 C 19.402344 10.324219 19.371094 9.386719 19.9375 8.722656 C 20.4375 8.136719 21.316406 7.890625 22.636719 8.027344 C 22.597656 7.910156 22.574219 7.808594 22.507812 7.648438 C 22.1875 6.886719 21.800781 6.226562 21.34375 5.628906 C 20.222656 4.167969 18.417969 2.722656 15.625 2.675781 Z M 15.503906 2.675781 " fill-opacity="1" fill-rule="nonzero"/><path fill="#32648d" d="M 10.382812 9.746094 L 10.386719 9.742188 L 10.390625 9.742188 Z M 10.382812 9.746094 " fill-opacity="1" fill-rule="nonzero"/><path fill="#32648d" d="M 12.039062 8.972656 L 12.050781 8.972656 L 12.058594 8.96875 Z M 12.039062 8.972656 " fill-opacity="1" fill-rule="nonzero"/><path fill="#32648d" d="M 13.433594 15.632812 C 13.886719 14.386719 14.773438 13.476562 14.027344 9.929688 C 13.90625 9.347656 13.664062 9.113281 13.328125 8.980469 C 13.167969 8.917969 12.980469 8.882812 12.78125 8.882812 C 12.769531 8.882812 12.753906 8.882812 12.742188 8.882812 L 12.746094 8.882812 C 12.503906 8.886719 12.273438 8.917969 12.050781 8.972656 C 11.578125 9.09375 11.160156 9.265625 10.773438 9.484375 C 10.628906 9.5625 10.503906 9.648438 10.386719 9.742188 L 10.363281 9.761719 C 10.371094 9.929688 10.402344 10.332031 10.417969 10.925781 C 10.429688 11.578125 10.414062 12.40625 10.292969 13.300781 C 10.027344 15.25 11.40625 16.863281 13.027344 16.867188 C 13.125 16.46875 13.28125 16.0625 13.433594 15.632812 Z M 12.476562 9.96875 C 12.421875 9.914062 12.378906 9.855469 12.347656 9.789062 L 12.34375 9.78125 C 12.3125 9.734375 12.296875 9.675781 12.296875 9.613281 C 12.296875 9.601562 12.296875 9.589844 12.300781 9.578125 L 12.300781 9.582031 C 12.316406 9.457031 12.414062 9.394531 12.511719 9.359375 C 12.601562 9.328125 12.699219 9.3125 12.804688 9.3125 C 12.820312 9.3125 12.835938 9.3125 12.855469 9.3125 L 12.855469 9.308594 C 12.914062 9.308594 12.976562 9.3125 13.039062 9.324219 C 13.207031 9.347656 13.359375 9.394531 13.476562 9.460938 C 13.53125 9.496094 13.582031 9.535156 13.621094 9.582031 C 13.660156 9.628906 13.683594 9.6875 13.683594 9.75 C 13.683594 9.761719 13.683594 9.769531 13.683594 9.777344 C 13.671875 9.84375 13.640625 9.90625 13.597656 9.953125 C 13.554688 10.007812 13.5 10.058594 13.441406 10.097656 L 13.441406 10.101562 C 13.328125 10.183594 13.183594 10.234375 13.03125 10.234375 C 13 10.234375 12.96875 10.234375 12.9375 10.230469 L 12.941406 10.230469 C 12.753906 10.199219 12.597656 10.105469 12.476562 9.96875 Z M 12.476562 9.96875 " fill-opacity="1" fill-rule="nonzero"/><path fill="#32648d" d="M 10.75 9.496094 C 10.757812 9.488281 10.765625 9.488281 10.773438 9.484375 C 10.773438 9.484375 10.777344 9.480469 10.777344 9.480469 Z M 10.75 9.496094 " fill-opacity="1" fill-rule="nonzero"/><path fill="#32648d" d="M 21.941406 5.164062 C 22.429688 5.796875 22.851562 6.519531 23.179688 7.292969 L 23.203125 7.355469 C 23.324219 7.65625 23.40625 7.910156 23.453125 8.105469 C 23.476562 8.207031 23.492188 8.289062 23.496094 8.375 C 23.5 8.417969 23.503906 8.460938 23.484375 8.539062 C 23.484375 8.542969 23.476562 8.550781 23.476562 8.554688 C 23.511719 9.550781 23.269531 10.230469 23.242188 11.183594 C 23.21875 11.871094 23.390625 12.683594 23.433594 13.570312 C 23.472656 14.402344 23.375 15.316406 22.847656 16.210938 C 22.894531 16.265625 22.933594 16.320312 22.976562 16.375 C 24.371094 14.125 25.375 11.636719 25.910156 9.511719 C 26.199219 8.371094 26.351562 7.332031 26.363281 6.511719 C 26.375 5.691406 26.226562 5.097656 26.035156 4.847656 C 24.542969 2.894531 22.523438 2.394531 20.832031 2.382812 L 20.667969 2.382812 C 20.015625 2.394531 19.386719 2.46875 18.777344 2.601562 C 20.160156 3.230469 21.207031 4.199219 21.941406 5.164062 Z M 21.941406 5.164062 " fill-opacity="1" fill-rule="nonzero"/><g clip-path="url(#ee1480926b)"><path fill="#000000" d="M 15.6875 1.183594 L 15.675781 1.183594 C 14.367188 1.160156 13.242188 1.488281 12.332031 2.027344 C 11.4375 1.710938 9.582031 1.164062 7.628906 1.273438 C 6.265625 1.347656 4.78125 1.773438 3.679688 2.964844 C 2.582031 4.15625 2 5.996094 2.121094 8.503906 C 2.15625 9.195312 2.347656 10.324219 2.667969 11.785156 C 2.988281 13.246094 3.433594 14.957031 3.996094 16.519531 C 4.554688 18.078125 5.167969 19.480469 6.125 20.433594 C 6.605469 20.910156 7.261719 21.3125 8.039062 21.28125 C 8.582031 21.257812 9.074219 21.011719 9.5 20.652344 C 9.707031 20.929688 9.929688 21.050781 10.128906 21.164062 C 10.382812 21.308594 10.628906 21.402344 10.886719 21.46875 C 11.347656 21.585938 12.132812 21.742188 13.054688 21.582031 C 13.367188 21.527344 13.695312 21.421875 14.027344 21.273438 C 14.039062 21.648438 14.054688 22.019531 14.066406 22.390625 C 14.113281 23.570312 14.140625 24.664062 14.488281 25.617188 C 14.542969 25.773438 14.695312 26.578125 15.296875 27.289062 C 15.894531 28 17.074219 28.445312 18.414062 28.148438 C 19.359375 27.941406 20.5625 27.570312 21.359375 26.402344 C 22.148438 25.253906 22.503906 23.601562 22.578125 20.921875 C 22.59375 20.777344 22.617188 20.65625 22.636719 20.539062 L 22.824219 20.558594 L 22.847656 20.558594 C 23.855469 20.605469 24.953125 20.457031 25.867188 20.023438 C 26.675781 19.636719 27.289062 19.25 27.734375 18.558594 C 27.847656 18.386719 27.96875 18.183594 28.003906 17.828125 C 28.035156 17.472656 27.835938 16.914062 27.503906 16.660156 C 26.84375 16.144531 26.425781 16.339844 25.980469 16.433594 C 25.585938 16.527344 25.125 16.585938 24.652344 16.601562 L 24.644531 16.601562 C 25.929688 14.382812 26.851562 12.023438 27.378906 9.9375 C 27.691406 8.707031 27.867188 7.574219 27.878906 6.578125 C 27.894531 5.585938 27.816406 4.707031 27.234375 3.949219 C 25.417969 1.574219 22.871094 0.917969 20.894531 0.894531 C 20.835938 0.894531 20.773438 0.890625 20.710938 0.894531 L 20.710938 0.890625 C 19.636719 0.898438 18.605469 1.0625 17.625 1.355469 L 17.578125 1.371094 C 17.011719 1.265625 16.355469 1.195312 15.6875 1.183594 Z M 18.355469 1.910156 C 19.046875 1.738281 19.835938 1.632812 20.652344 1.625 L 20.660156 1.625 L 20.660156 1.617188 C 22.527344 1.601562 24.910156 2.136719 26.625 4.378906 C 27.011719 4.882812 27.125 5.621094 27.109375 6.527344 C 27.097656 7.433594 26.933594 8.515625 26.632812 9.707031 C 26.050781 12.007812 24.957031 14.691406 23.410156 17.101562 C 23.460938 17.136719 23.519531 17.171875 23.582031 17.195312 L 23.585938 17.199219 C 23.910156 17.335938 24.644531 17.453125 26.109375 17.144531 C 26.480469 17.0625 26.75 17.011719 27.03125 17.230469 C 27.15625 17.339844 27.234375 17.5 27.234375 17.683594 C 27.234375 17.691406 27.234375 17.703125 27.234375 17.714844 C 27.21875 17.859375 27.167969 17.988281 27.089844 18.097656 C 26.804688 18.535156 26.246094 18.949219 25.53125 19.289062 C 24.894531 19.59375 23.984375 19.75 23.175781 19.757812 C 22.769531 19.765625 22.398438 19.730469 22.082031 19.628906 L 22.0625 19.621094 C 21.9375 20.832031 21.65625 23.214844 21.472656 24.304688 C 21.328125 25.183594 21.070312 25.878906 20.578125 26.402344 C 20.089844 26.921875 19.394531 27.238281 18.464844 27.441406 C 17.308594 27.699219 16.46875 27.425781 15.925781 26.957031 C 15.382812 26.488281 15.136719 25.867188 14.984375 25.488281 C 14.882812 25.226562 14.828125 24.886719 14.777344 24.433594 C 14.726562 23.980469 14.6875 23.425781 14.664062 22.800781 C 14.636719 22.164062 14.625 21.414062 14.625 20.664062 C 14.625 20.417969 14.628906 20.171875 14.628906 19.921875 C 14.164062 20.359375 13.578125 20.667969 12.921875 20.785156 L 12.902344 20.789062 C 12.136719 20.921875 11.453125 20.792969 11.042969 20.6875 C 10.828125 20.632812 10.636719 20.550781 10.460938 20.453125 C 10.273438 20.351562 10.09375 20.234375 9.976562 20.003906 C 9.929688 19.917969 9.898438 19.8125 9.898438 19.699219 C 9.898438 19.65625 9.90625 19.609375 9.914062 19.570312 C 9.953125 19.417969 10.039062 19.289062 10.15625 19.195312 C 10.375 19.011719 10.667969 18.910156 11.105469 18.816406 C 11.90625 18.648438 12.1875 18.53125 12.355469 18.394531 C 12.5 18.277344 12.664062 18.035156 12.953125 17.683594 C 12.953125 17.675781 12.949219 17.65625 12.949219 17.640625 L 12.949219 17.636719 C 12.40625 17.621094 11.894531 17.472656 11.453125 17.222656 L 11.46875 17.230469 C 11.304688 17.410156 10.449219 18.332031 9.414062 19.613281 C 8.976562 20.148438 8.492188 20.457031 7.984375 20.480469 C 7.472656 20.5 7.011719 20.238281 6.621094 19.851562 C 5.839844 19.070312 5.214844 17.734375 4.671875 16.21875 C 4.128906 14.707031 3.6875 13.019531 3.371094 11.585938 C 3.058594 10.148438 2.871094 8.992188 2.847656 8.433594 C 2.730469 6.058594 3.269531 4.460938 4.199219 3.453125 C 5.128906 2.441406 6.40625 2.0625 7.648438 1.988281 C 9.878906 1.855469 11.996094 2.652344 12.421875 2.824219 C 13.25 2.25 14.3125 1.890625 15.640625 1.914062 C 16.3125 1.925781 16.953125 2.015625 17.570312 2.175781 L 17.511719 2.164062 L 17.535156 2.152344 C 17.75 2.070312 18.023438 1.988281 18.304688 1.917969 Z M 18.355469 1.910156 " fill-opacity="1" fill-rule="nonzero"/></g></svg>