<svg xmlns="http://www.w3.org/2000/svg" xmlns:xlink="http://www.w3.org/1999/xlink" width="40" zoomAndPan="magnify" viewBox="0 0 30 30.000001" height="40" preserveAspectRatio="xMidYMid meet" version="1.0"><defs><clipPath id="6344866609"><path d="M 0.484375 1 L 29.515625 1 L 29.515625 27 L 0.484375 27 Z M 0.484375 1 " clip-rule="nonzero"/></clipPath></defs><path fill="#53c1de" d="M 17.59375 14.367188 C 17.59375 12.992188 16.433594 11.875 15 11.875 C 13.566406 11.875 12.40625 12.992188 12.40625 14.367188 C 12.40625 15.742188 13.566406 16.855469 15 16.855469 C 16.433594 16.855469 17.59375 15.742188 17.59375 14.367188 Z M 17.59375 14.367188 " fill-opacity="1" fill-rule="nonzero"/><g clip-path="url(#6344866609)"><path fill="#53c1de" d="M 23.417969 9.742188 C 23.96875 7.605469 24.65625 3.640625 22.230469 2.296875 C 19.816406 0.960938 16.671875 3.523438 15.011719 5.0625 C 13.359375 3.539062 10.128906 0.988281 7.703125 2.335938 C 5.292969 3.675781 6.035156 7.574219 6.59375 9.726562 C 4.34375 10.339844 0.484375 11.664062 0.484375 14.367188 C 0.484375 17.0625 4.339844 18.5 6.578125 19.113281 C 6.015625 21.277344 5.308594 25.121094 7.726562 26.457031 C 10.160156 27.804688 13.378906 25.316406 15.054688 23.757812 C 16.722656 25.308594 19.835938 27.816406 22.25 26.472656 C 24.671875 25.125 24.042969 21.214844 23.484375 19.050781 C 25.652344 18.4375 29.515625 17.027344 29.515625 14.367188 C 29.515625 11.6875 25.636719 10.355469 23.417969 9.742188 Z M 23.144531 17.90625 C 22.777344 16.789062 22.28125 15.597656 21.675781 14.371094 C 22.253906 13.171875 22.730469 12 23.085938 10.890625 C 24.710938 11.34375 28.277344 12.375 28.277344 14.367188 C 28.277344 16.375 24.855469 17.417969 23.144531 17.90625 Z M 21.628906 25.441406 C 19.828125 26.441406 17.152344 24.042969 15.917969 22.90625 C 16.734375 22.042969 17.554688 21.046875 18.351562 19.9375 C 19.753906 19.816406 21.082031 19.621094 22.28125 19.355469 C 22.675781 20.882812 23.4375 24.433594 21.628906 25.441406 Z M 8.34375 25.425781 C 6.542969 24.429688 7.367188 21 7.78125 19.40625 C 8.96875 19.660156 10.285156 19.839844 11.691406 19.949219 C 12.496094 21.035156 13.335938 22.035156 14.183594 22.910156 C 13.136719 23.882812 10.15625 26.429688 8.34375 25.425781 Z M 1.722656 14.367188 C 1.722656 12.351562 5.265625 11.324219 6.929688 10.871094 C 7.292969 12.007812 7.769531 13.195312 8.34375 14.394531 C 7.761719 15.613281 7.277344 16.820312 6.910156 17.96875 C 5.324219 17.53125 1.722656 16.382812 1.722656 14.367188 Z M 8.324219 3.367188 C 10.136719 2.359375 12.941406 4.808594 14.144531 5.914062 C 13.300781 6.785156 12.46875 7.773438 11.671875 8.851562 C 10.304688 8.976562 9 9.171875 7.796875 9.433594 C 7.347656 7.695312 6.519531 4.371094 8.324219 3.367188 Z M 19.238281 10.148438 C 20.164062 10.261719 21.050781 10.410156 21.886719 10.59375 C 21.636719 11.363281 21.324219 12.167969 20.957031 12.996094 C 20.421875 12.023438 19.851562 11.074219 19.238281 10.148438 Z M 15.015625 6.765625 C 15.585938 7.359375 16.160156 8.023438 16.722656 8.746094 C 15.578125 8.695312 14.433594 8.695312 13.289062 8.746094 C 13.855469 8.03125 14.433594 7.367188 15.015625 6.765625 Z M 9.054688 12.992188 C 8.695312 12.171875 8.382812 11.363281 8.132812 10.582031 C 8.960938 10.402344 9.84375 10.257812 10.765625 10.144531 C 10.148438 11.070312 9.578125 12.019531 9.054688 12.992188 Z M 10.789062 18.671875 C 9.839844 18.570312 8.941406 18.429688 8.113281 18.257812 C 8.371094 17.460938 8.6875 16.636719 9.054688 15.796875 C 9.585938 16.78125 10.164062 17.738281 10.789062 18.671875 Z M 15.046875 22.050781 C 14.460938 21.441406 13.875 20.769531 13.300781 20.042969 C 14.449219 20.085938 15.601562 20.085938 16.753906 20.039062 C 16.1875 20.777344 15.617188 21.449219 15.046875 22.050781 Z M 20.96875 15.753906 C 21.355469 16.601562 21.683594 17.425781 21.941406 18.207031 C 21.101562 18.390625 20.191406 18.539062 19.234375 18.648438 C 19.851562 17.707031 20.433594 16.742188 20.96875 15.753906 Z M 17.660156 18.792969 C 15.898438 18.914062 14.128906 18.914062 12.371094 18.804688 C 11.371094 17.402344 10.480469 15.925781 9.714844 14.394531 C 10.476562 12.867188 11.363281 11.394531 12.355469 9.992188 C 14.117188 9.867188 15.886719 9.867188 17.648438 9.996094 C 18.636719 11.394531 19.515625 12.863281 20.300781 14.378906 C 19.527344 15.90625 18.636719 17.378906 17.660156 18.792969 Z M 21.609375 3.332031 C 23.421875 4.332031 22.613281 7.894531 22.21875 9.445312 C 21.015625 9.175781 19.707031 8.976562 18.335938 8.855469 C 17.539062 7.761719 16.710938 6.769531 15.882812 5.914062 C 17.097656 4.785156 19.816406 2.335938 21.609375 3.332031 Z M 21.609375 3.332031 " fill-opacity="1" fill-rule="evenodd"/></g></svg>