<svg xmlns="http://www.w3.org/2000/svg" xmlns:xlink="http://www.w3.org/1999/xlink" width="40" zoomAndPan="magnify" viewBox="0 0 30 30.000001" height="40" preserveAspectRatio="xMidYMid meet" version="1.0"><defs><clipPath id="815e14bf87"><path d="M 6.378906 10 L 23.796875 10 L 23.796875 27.582031 L 6.378906 27.582031 Z M 6.378906 10 " clip-rule="nonzero"/></clipPath><clipPath id="60c01359e8"><path d="M 14 1.453125 L 23.796875 1.453125 L 23.796875 11 L 14 11 Z M 14 1.453125 " clip-rule="nonzero"/></clipPath></defs><g clip-path="url(#815e14bf87)"><path fill="#2563b0" d="M 14.863281 10.40625 C 14.867188 10.960938 14.921875 11.511719 15.03125 12.058594 C 15.140625 12.605469 15.300781 13.136719 15.515625 13.652344 C 15.730469 14.164062 15.992188 14.652344 16.300781 15.117188 C 16.609375 15.582031 16.960938 16.007812 17.355469 16.402344 C 17.75 16.796875 18.179688 17.148438 18.640625 17.457031 C 19.105469 17.769531 19.59375 18.03125 20.109375 18.242188 C 20.621094 18.457031 21.152344 18.617188 21.699219 18.726562 C 22.246094 18.835938 22.796875 18.894531 23.355469 18.894531 C 22.796875 18.894531 22.246094 18.949219 21.699219 19.058594 C 21.152344 19.167969 20.621094 19.332031 20.109375 19.546875 C 19.59375 19.757812 19.105469 20.019531 18.640625 20.332031 C 18.179688 20.640625 17.75 20.992188 17.355469 21.386719 C 16.960938 21.78125 16.609375 22.207031 16.300781 22.671875 C 15.992188 23.132812 15.730469 23.625 15.515625 24.136719 C 15.300781 24.652344 15.140625 25.183594 15.03125 25.730469 C 14.921875 26.273438 14.867188 26.828125 14.863281 27.382812 C 14.863281 27.429688 14.863281 27.476562 14.863281 27.519531 L 14.863281 27.382812 C 14.863281 26.828125 14.808594 26.273438 14.699219 25.730469 C 14.589844 25.183594 14.425781 24.652344 14.214844 24.136719 C 14 23.625 13.738281 23.132812 13.429688 22.671875 C 13.117188 22.207031 12.765625 21.78125 12.375 21.386719 C 11.980469 20.992188 11.550781 20.640625 11.085938 20.332031 C 10.625 20.019531 10.136719 19.757812 9.621094 19.546875 C 9.105469 19.332031 8.578125 19.167969 8.03125 19.058594 C 7.484375 18.949219 6.933594 18.894531 6.375 18.894531 C 6.933594 18.894531 7.484375 18.839844 8.03125 18.730469 C 8.578125 18.617188 9.105469 18.457031 9.621094 18.242188 C 10.136719 18.03125 10.625 17.769531 11.085938 17.457031 C 11.550781 17.148438 11.980469 16.796875 12.375 16.402344 C 12.765625 16.007812 13.117188 15.582031 13.429688 15.117188 C 13.738281 14.65625 14 14.164062 14.214844 13.652344 C 14.425781 13.136719 14.589844 12.605469 14.699219 12.058594 C 14.808594 11.511719 14.863281 10.960938 14.863281 10.40625 L 14.863281 10.269531 C 14.863281 10.3125 14.863281 10.359375 14.863281 10.40625 Z M 14.863281 10.40625 " fill-opacity="1" fill-rule="nonzero"/></g><g clip-path="url(#60c01359e8)"><path fill="#2563b0" d="M 19.277344 1.570312 C 19.277344 1.855469 19.304688 2.136719 19.363281 2.417969 C 19.417969 2.695312 19.5 2.96875 19.609375 3.230469 C 19.71875 3.492188 19.851562 3.742188 20.011719 3.980469 C 20.167969 4.21875 20.347656 4.4375 20.550781 4.636719 C 20.753906 4.839844 20.972656 5.019531 21.207031 5.179688 C 21.445312 5.335938 21.695312 5.46875 21.957031 5.578125 C 22.222656 5.6875 22.492188 5.773438 22.773438 5.828125 C 23.050781 5.882812 23.332031 5.914062 23.617188 5.914062 C 23.332031 5.914062 23.050781 5.941406 22.773438 5.996094 C 22.492188 6.054688 22.222656 6.136719 21.957031 6.246094 C 21.695312 6.355469 21.445312 6.488281 21.207031 6.648438 C 20.972656 6.804688 20.753906 6.984375 20.550781 7.1875 C 20.347656 7.386719 20.167969 7.609375 20.011719 7.84375 C 19.851562 8.082031 19.71875 8.332031 19.609375 8.59375 C 19.5 8.859375 19.417969 9.128906 19.363281 9.410156 C 19.304688 9.6875 19.277344 9.96875 19.277344 10.253906 L 19.277344 10.324219 C 19.277344 10.300781 19.277344 10.277344 19.277344 10.253906 C 19.277344 9.96875 19.246094 9.6875 19.191406 9.410156 C 19.136719 9.128906 19.054688 8.859375 18.945312 8.59375 C 18.835938 8.332031 18.699219 8.082031 18.542969 7.84375 C 18.382812 7.609375 18.203125 7.386719 18.003906 7.1875 C 17.800781 6.984375 17.582031 6.804688 17.34375 6.648438 C 17.109375 6.488281 16.859375 6.355469 16.59375 6.246094 C 16.332031 6.136719 16.0625 6.054688 15.78125 5.996094 C 15.5 5.941406 15.21875 5.914062 14.933594 5.914062 C 15.21875 5.914062 15.5 5.882812 15.78125 5.828125 C 16.0625 5.773438 16.332031 5.691406 16.59375 5.582031 C 16.859375 5.472656 17.109375 5.335938 17.34375 5.179688 C 17.582031 5.019531 17.800781 4.839844 18.003906 4.636719 C 18.203125 4.4375 18.382812 4.21875 18.542969 3.980469 C 18.699219 3.742188 18.835938 3.492188 18.945312 3.230469 C 19.054688 2.96875 19.136719 2.695312 19.191406 2.417969 C 19.25 2.136719 19.277344 1.855469 19.277344 1.570312 C 19.277344 1.546875 19.277344 1.523438 19.277344 1.5 Z M 19.277344 1.570312 " fill-opacity="1" fill-rule="nonzero"/></g></svg>