<svg xmlns="http://www.w3.org/2000/svg" xmlns:xlink="http://www.w3.org/1999/xlink" width="40" zoomAndPan="magnify" viewBox="0 0 30 30.000001" height="40" preserveAspectRatio="xMidYMid meet" version="1.0"><defs><clipPath id="2a97de6a82"><path d="M 0.484375 3.40625 L 23 3.40625 L 23 25.90625 L 0.484375 25.90625 Z M 0.484375 3.40625 " clip-rule="nonzero"/></clipPath><clipPath id="6cb0ba3a86"><path d="M 18 14 L 29.515625 14 L 29.515625 25.90625 L 18 25.90625 Z M 18 14 " clip-rule="nonzero"/></clipPath></defs><g clip-path="url(#2a97de6a82)"><path fill="#2563b0" d="M 11.773438 9.320312 C 11.84375 9.941406 12.011719 10.535156 12.28125 11.097656 C 12.550781 11.660156 12.90625 12.160156 13.347656 12.601562 C 13.789062 13.042969 14.292969 13.398438 14.855469 13.671875 C 15.417969 13.941406 16.007812 14.109375 16.628906 14.175781 C 18.589844 14.371094 20.558594 14.460938 22.527344 14.445312 C 20.558594 14.429688 18.589844 14.519531 16.628906 14.714844 C 16.007812 14.78125 15.417969 14.949219 14.855469 15.21875 C 14.292969 15.492188 13.789062 15.847656 13.347656 16.289062 C 12.90625 16.730469 12.550781 17.230469 12.28125 17.792969 C 12.011719 18.355469 11.84375 18.949219 11.773438 19.570312 C 11.578125 21.53125 11.488281 23.496094 11.507812 25.46875 C 11.523438 23.496094 11.433594 21.53125 11.238281 19.570312 C 11.167969 18.949219 11 18.355469 10.730469 17.792969 C 10.460938 17.230469 10.105469 16.730469 9.664062 16.289062 C 9.222656 15.847656 8.71875 15.492188 8.15625 15.21875 C 7.59375 14.949219 7.003906 14.78125 6.382812 14.714844 C 4.421875 14.519531 2.453125 14.429688 0.484375 14.445312 C 2.453125 14.460938 4.421875 14.371094 6.382812 14.175781 C 7.003906 14.109375 7.59375 13.941406 8.15625 13.667969 C 8.71875 13.398438 9.222656 13.042969 9.664062 12.601562 C 10.105469 12.160156 10.460938 11.660156 10.730469 11.097656 C 11 10.535156 11.167969 9.941406 11.238281 9.320312 C 11.433594 7.359375 11.523438 5.394531 11.507812 3.421875 C 11.488281 5.394531 11.578125 7.359375 11.773438 9.320312 Z M 11.773438 9.320312 " fill-opacity="1" fill-rule="nonzero"/></g><g clip-path="url(#6cb0ba3a86)"><path fill="#2563b0" d="M 24.082031 17.429688 C 24.113281 17.742188 24.199219 18.042969 24.335938 18.328125 C 24.472656 18.613281 24.652344 18.867188 24.875 19.089844 C 25.101562 19.3125 25.355469 19.492188 25.640625 19.628906 C 25.925781 19.765625 26.222656 19.851562 26.539062 19.886719 C 27.53125 19.984375 28.523438 20.03125 29.523438 20.023438 C 28.523438 20.015625 27.53125 20.058594 26.539062 20.160156 C 26.222656 20.191406 25.925781 20.277344 25.640625 20.414062 C 25.355469 20.550781 25.101562 20.730469 24.875 20.957031 C 24.652344 21.179688 24.472656 21.433594 24.335938 21.71875 C 24.199219 22.003906 24.113281 22.300781 24.082031 22.617188 C 23.980469 23.609375 23.9375 24.601562 23.945312 25.601562 C 23.953125 24.601562 23.90625 23.609375 23.808594 22.617188 C 23.773438 22.300781 23.6875 22.003906 23.550781 21.71875 C 23.414062 21.433594 23.234375 21.179688 23.011719 20.957031 C 22.789062 20.730469 22.535156 20.550781 22.25 20.414062 C 21.964844 20.277344 21.664062 20.191406 21.351562 20.160156 C 20.359375 20.058594 19.363281 20.015625 18.367188 20.023438 C 19.363281 20.03125 20.359375 19.984375 21.351562 19.886719 C 21.664062 19.851562 21.964844 19.765625 22.25 19.628906 C 22.535156 19.492188 22.789062 19.3125 23.011719 19.089844 C 23.234375 18.867188 23.414062 18.613281 23.550781 18.328125 C 23.6875 18.042969 23.773438 17.742188 23.808594 17.429688 C 23.90625 16.4375 23.953125 15.441406 23.945312 14.445312 C 23.9375 15.441406 23.980469 16.4375 24.082031 17.429688 Z M 24.082031 17.429688 " fill-opacity="1" fill-rule="nonzero"/></g><path fill="#2563b0" d="M 19.886719 6.421875 C 19.929688 6.816406 20.09375 7.15625 20.375 7.4375 C 20.65625 7.71875 20.992188 7.878906 21.386719 7.921875 C 21.992188 7.984375 22.601562 8.011719 23.210938 8.007812 C 22.601562 8 21.992188 8.027344 21.386719 8.089844 C 20.992188 8.132812 20.65625 8.292969 20.375 8.574219 C 20.09375 8.855469 19.929688 9.195312 19.886719 9.589844 C 19.828125 10.195312 19.800781 10.804688 19.804688 11.410156 C 19.808594 10.804688 19.78125 10.195312 19.722656 9.589844 C 19.679688 9.195312 19.515625 8.855469 19.234375 8.574219 C 18.953125 8.292969 18.617188 8.132812 18.222656 8.089844 C 17.617188 8.027344 17.007812 8 16.398438 8.007812 C 17.007812 8.011719 17.617188 7.984375 18.222656 7.921875 C 18.617188 7.878906 18.953125 7.71875 19.234375 7.4375 C 19.515625 7.15625 19.679688 6.816406 19.722656 6.421875 C 19.78125 5.816406 19.808594 5.210938 19.804688 4.601562 C 19.800781 5.210938 19.828125 5.816406 19.886719 6.421875 Z M 19.886719 6.421875 " fill-opacity="1" fill-rule="nonzero"/></svg>